<?xml version="1.0" encoding="UTF-8"?>
<svg xmlns="http://www.w3.org/2000/svg" version="1.1" xmlns:xlink="http://www.w3.org/1999/xlink" viewBox="0 0 250 150">
  <!-- Generator: Adobe Illustrator 29.8.1, SVG Export Plug-In . SVG Version: 2.1.1 Build 2)  -->
  <defs>
    <style>
      .st0, .st1, .st2 {
        mix-blend-mode: lighten;
      }

      .st3 {
        fill: #ed70b7;
      }

      .st4, .st2 {
        fill: #ffacdd;
      }

      .st5 {
        mask: url(#mask-1);
      }

      .st6, .st7 {
        fill: #ff388b;
      }

      .st8, .st1 {
        fill: #31f0f6;
      }

      .st9 {
        fill: #4d4d4d;
      }

      .st10 {
        fill: #fff;
      }

      .st11 {
        mask: url(#mask);
      }

      .st7, .st12, .st13 {
        stroke: #fff;
      }

      .st7, .st13 {
        stroke-miterlimit: 10;
      }

      .st14 {
        mask: url(#mask-2);
      }

      .st15 {
        isolation: isolate;
      }

      .st16, .st12, .st13 {
        fill: #3b82f6;
      }

      .st12 {
        stroke-linecap: round;
        stroke-linejoin: round;
      }

      .st17 {
        fill: #31cef6;
      }

      .st18 {
        fill: #d1d9eb;
      }

      .st19 {
        mask: url(#mask-3);
      }
    </style>
    <mask id="mask" x="67.36" y="25.05" width="40.73" height="54.47" maskUnits="userSpaceOnUse">
      <path class="st13" d="M88.43,36.28c.1-.49.25-.77.68-1.16.43-.39.91-.72,1.42-.98.9-.46,1.72-.7,2.45-.74.73-.04,1.3.17,1.69.62.68.76,1.31,1.47,1.9,2.12.59.66,1.16,1.29,1.7,1.88.54.6,1.08,1.19,1.61,1.79.53.59,1.07,1.22,1.62,1.88l.16-.08c-.47-1.4-.93-2.74-1.38-4-.45-1.26-.9-2.5-1.35-3.71-.45-1.21-.9-2.41-1.34-3.6-.44-1.19-.52-1.71-.35-2.43s.82-1.42,1.72-1.87c.79-.4,1.66-.48,2.41-.43s1.22.26,1.63,1.07c.24.47.59,1.55.93,2.47s.15.42.53,1.57c.38,1.15.76,2.37,1.14,3.66.38,1.29.73,2.52,1.03,3.71.31,1.19.56,2.28.75,3.27.19.99.25,1.54.18,2.26-.07.65-.1,1.16-.64,1.95-.59.86-1.24,1.25-2.02,1.64-1.01.51-2.38.55-3.38.4-.83-.12-1.52-.41-1.92-.83-.71-.72-1.32-1.28-2.24-2.29s-1.92-2.14-2.99-3.37c.4,1.54.78,3.06,1.13,4.55.35,1.49.53,2.12.56,3.29.02.8-.02,1.57-.63,2.29-.49.57-1.1,1.14-1.88,1.53-.96.49-1.61.51-2.55.53s-2.25-.25-2.74-.62c-.39-.29-.78-.57-1.39-1.21-.61-.65-1.28-1.4-2.01-2.25-.73-.85-1.5-1.79-2.32-2.8-.82-1.01-1.62-2.03-2.4-3.06-.78-1.03-1.53-2.05-2.24-3.04-.72-.99-2-2.79-2.04-3.31s.14-1.02.55-1.67.93-1.07,1.55-1.38c.81-.41,1.26-.56,1.97-.47.7.09,2.11,1.44,2.66,2.21,1.45,2.01,2.65,3.69,3.61,5.03.96,1.34,1.75,2.44,2.36,3.31.61.86,1.08,1.53,1.4,2.01.32.48.59.86.81,1.12l.16-.08c-.24-.95-.46-1.84-.66-2.65-.2-.81-.39-1.64-.58-2.47-.19-.83-.41-1.72-.64-2.66-.23-.94-.73-2.5-.62-2.98Z"/>
    </mask>
    <mask id="mask-1" x="108.11" y="26.31" width="20.5" height="30.82" maskUnits="userSpaceOnUse">
      <path class="st7" d="M115.04,44.6c-.65.19-1.01.1-1.39.1-.68,0-1.27-.06-1.78-.17-.42-.09-.77-.25-1.04-.47s-.49-.53-.63-.91c-.14-.38-.2-.87-.18-1.47,0,0,.52-13.32.59-13.8s.53-.82.99-.95.98-.13,1.37-.12c.67,0,1.26.06,1.77.17.42.09.77.24,1.05.47.28.23.49.53.63.91.14.38.2.87.18,1.47,0,0-.54,13.36-.6,13.66s-.29.92-.94,1.11Z"/>
    </mask>
    <mask id="mask-2" x="129.7" y="39.78" width="40.54" height="46.93" maskUnits="userSpaceOnUse">
      <path class="st7" d="M153.55,60.97c-.07.52-.56.68-1.05.84-.5.16-1.02.28-1.56.38-.52.09-.99.13-1.42.13-.43,0-.8-.08-1.12-.25-.32-.16-.59-.42-.8-.76-.22-.34-.37-.81-.47-1.4l-1.34-7.88c-.17-.97-.52-1.61-1.08-1.92-.55-.31-1.18-.4-1.89-.28-.47.08-.91.22-1.32.41-.41.19-.72.39-.96.6,0,0,2.11,11.19,2.09,11.76-.03.85-1.35,1.13-1.05,1.06.29-.07-1.02.28-1.56.38-.52.09-.99.13-1.42.13-.43,0-.8-.08-1.12-.25-.32-.16-.59-.42-.8-.76-.22-.34-.37-.81-.47-1.4,0,0-3.35-18.86-3.39-19.64-.04-.79.51-1.16,1-1.33.49-.17,1-.3,1.52-.39s.99-.13,1.42-.13c.43,0,.8.08,1.12.25.32.16.59.42.8.76.22.34.38.81.48,1.4l.59,3.48c.29-.17.73-.39,1.33-.65.6-.26,1.28-.46,2.04-.58,2.34-.4,4.27-.12,5.78.82,1.51.95,2.47,2.58,2.86,4.9,0,0,1.89,9.71,1.8,10.32Z"/>
    </mask>
    <mask id="mask-3" x="111.54" y="41.02" width="20.69" height="33.22" maskUnits="userSpaceOnUse">
      <path class="st13" d="M123.57,57.46c-.14.61-.04,1.09.28,1.43.33.35.84.6,1.54.76.35.08.72.13,1.11.16.39.03,1.2.46,1.38.98.12.34.07.75-.03,1.19-.2.89-.7,1.54-1.49,1.95-.8.41-2.04.42-3.72.04-2.06-.47-3.54-1.3-4.44-2.49-.9-1.19-1.11-2.84-.63-4.94,0,0,3.02-14.23,3.41-14.64s.66-.39,1.16-.36c.5.03,1.02.1,1.55.22,1.03.23,1.79.6,2.28,1.09.49.49.6,1.32.34,2.49l-.51,2.25s3.96.79,4.34,1.07.4.62.44,1.03,0,.86-.1,1.33c-.19.82-.5,1.37-.95,1.65s-.97.35-1.58.21l-3.19-.73-1.21,5.3Z"/>
    </mask>
  </defs>
  <g class="st15">
    <g id="_图层_1" data-name="图层_1">
      <rect class="st9" x="0" y="0" width="250" height="150"/>
      <g>
        <g>
          <path class="st16" d="M118.22,34.4c-.47,0-.89-.32-1.02-.77-.08-.27-.04-.56.1-.8s.36-.42.64-.5l18.86-5.25c.09-.03.19-.04.28-.04.47,0,.89.32,1.02.77.08.27.04.56-.1.8-.14.25-.37.42-.64.5l-18.86,5.25c-.09.03-.19.04-.28.04Z"/>
          <path class="st10" d="M137.08,27.54c.24,0,.47.16.53.41.08.3-.09.6-.39.68l-18.86,5.25s-.1.02-.15.02c-.24,0-.47-.16-.53-.41-.08-.3.09-.6.39-.68l18.86-5.25s.1-.02.15-.02M137.08,26.54c-.14,0-.28.02-.42.06l-18.86,5.25c-.4.11-.73.37-.94.73-.2.36-.26.78-.14,1.18.19.67.8,1.14,1.5,1.14.14,0,.28-.02.42-.06l18.86-5.25c.4-.11.73-.37.94-.73.2-.36.26-.78.14-1.18-.19-.67-.8-1.14-1.5-1.14h0Z"/>
        </g>
        <g>
          <path class="st8" d="M122.75,35.5c-.47,0-.89-.32-1.02-.77-.16-.56.17-1.14.73-1.3l5.94-1.65c.09-.03.19-.04.28-.04.47,0,.89.32,1.02.77.16.56-.17,1.14-.73,1.3l-5.94,1.65c-.09.03-.19.04-.28.04Z"/>
          <path class="st10" d="M128.69,32.23c.24,0,.47.16.53.41.08.3-.09.6-.39.68l-5.94,1.65s-.1.02-.15.02c-.24,0-.47-.16-.53-.41h0c-.08-.3.09-.6.39-.68l5.94-1.65s.1-.02.15-.02M128.69,31.23c-.14,0-.28.02-.42.06l-5.94,1.65c-.4.11-.73.37-.94.73-.2.36-.26.78-.14,1.18.19.67.8,1.14,1.5,1.14.14,0,.28-.02.42-.06l5.94-1.65c.83-.23,1.31-1.09,1.08-1.92-.19-.67-.8-1.14-1.5-1.14h0Z"/>
        </g>
        <g>
          <path class="st4" d="M130.71,33.28c-.47,0-.89-.32-1.02-.77-.08-.27-.04-.55.1-.8.14-.25.36-.42.64-.5l9.33-2.59c.09-.03.19-.04.28-.04.47,0,.89.32,1.02.77.16.56-.17,1.14-.73,1.3l-9.33,2.59c-.09.03-.19.04-.28.04Z"/>
          <path class="st10" d="M140.04,29.08c.24,0,.47.16.53.41.08.3-.09.6-.39.68l-9.32,2.59s-.1.02-.15.02c-.24,0-.47-.16-.53-.41-.08-.3.09-.6.39-.68l9.32-2.59s.1-.02.15-.02M140.04,28.08c-.14,0-.28.02-.42.06l-9.32,2.59c-.83.23-1.31,1.09-1.08,1.92.19.67.8,1.14,1.5,1.14.14,0,.28-.02.42-.06l9.32-2.59c.83-.23,1.31-1.09,1.08-1.92-.19-.67-.8-1.14-1.5-1.14h0Z"/>
        </g>
        <g>
          <path class="st6" d="M115.89,39.91c-.47,0-.89-.32-1.02-.77-.08-.27-.04-.56.1-.8s.36-.42.64-.5l20.56-5.72c.09-.03.19-.04.28-.04.47,0,.89.32,1.02.77.08.27.04.55-.1.8-.14.25-.37.42-.64.5l-20.56,5.72c-.09.03-.19.04-.28.04Z"/>
          <path class="st10" d="M136.45,32.58c.24,0,.47.16.53.41.08.3-.09.6-.39.68l-20.56,5.72s-.1.02-.15.02c-.24,0-.47-.16-.53-.41h0c-.08-.3.09-.6.39-.68l20.56-5.72s.1-.02.15-.02M136.45,31.58c-.14,0-.28.02-.42.06l-20.56,5.72c-.83.23-1.31,1.09-1.08,1.92.19.67.8,1.14,1.5,1.14.14,0,.28-.02.42-.06l20.56-5.72c.83-.23,1.31-1.09,1.08-1.92-.19-.67-.8-1.14-1.5-1.14h0Z"/>
        </g>
      </g>
      <polygon class="st17" points="97.38 36.75 83.91 31.84 72.91 41.05 75.4 55.18 88.87 60.09 99.87 50.88 97.38 36.75"/>
      <g>
        <g>
          <g>
            <ellipse class="st18" cx="93.04" cy="58.39" rx="11.45" ry="8.11"/>
            <ellipse class="st18" cx="101.79" cy="49.22" rx="11.9" ry="5.51"/>
            <ellipse class="st18" cx="89.89" cy="51.66" rx="4.89" ry="4.69"/>
            <ellipse class="st18" cx="104.5" cy="58.26" rx="10.14" ry="6.57"/>
            <ellipse class="st18" cx="117.99" cy="57.74" rx="8.45" ry="8.09"/>
            <ellipse class="st18" cx="112.07" cy="53.47" rx="7.04" ry="6.5"/>
          </g>
          <g>
            <ellipse class="st10" cx="94.45" cy="58" rx="10.29" ry="7.28"/>
            <ellipse class="st10" cx="102.3" cy="49.77" rx="10.69" ry="4.95"/>
            <ellipse class="st10" cx="91.61" cy="51.96" rx="4.4" ry="4.21"/>
            <ellipse class="st10" cx="104.73" cy="57.88" rx="9.11" ry="5.9"/>
            <ellipse class="st10" cx="116.85" cy="57.42" rx="7.59" ry="7.27"/>
            <ellipse class="st10" cx="111.54" cy="53.58" rx="6.33" ry="5.84"/>
          </g>
        </g>
        <g>
          <path class="st18" d="M112.4,54.46c.13.14.26.28.38.43l-.08-.1c.1.13.19.27.26.42l-.05-.12c.04.1.07.21.09.31l-.02-.13s0,.05,0,.08c0,.13.05.26.15.35.09.09.23.15.35.15s.26-.05.35-.15.15-.22.15-.35c-.02-.33-.13-.64-.31-.91-.16-.25-.36-.47-.57-.68-.18-.19-.53-.2-.71,0s-.19.5,0,.71h0Z"/>
          <path class="st18" d="M113.98,53.23c0,.57.07,1.14.19,1.69.06.26.37.43.62.35.27-.09.41-.34.35-.62-.05-.21-.08-.41-.11-.62l.02.13c-.04-.31-.06-.62-.06-.93,0-.26-.23-.51-.5-.5s-.5.22-.5.5h0Z"/>
          <path class="st18" d="M116.59,53.15c-.42.51-.73,1.1-.87,1.75-.03.13-.02.27.05.39.06.1.18.2.3.23.25.06.56-.08.62-.35.05-.22.11-.43.2-.64l-.05.12c.12-.29.28-.56.47-.81l-.08.1s.04-.05.07-.08c.09-.11.15-.21.15-.35,0-.12-.05-.27-.15-.35s-.22-.15-.35-.15c-.12,0-.27.05-.35.15h0Z"/>
          <path class="st18" d="M110.33,54.86c.31-.19.53-.46.7-.78.15-.29.25-.68.5-.91.39-.36.87-.07,1.32-.13s.67-.38,1.03-.58c.44-.24.83-.1,1.26.07.49.19.77.03,1.24-.11s.93.35,1.32.54c.2.1.41.16.63.2.23.04.43,0,.29.29-.27.58.6,1.09.86.5.23-.5.35-1.07-.13-1.47-.4-.33-.97-.27-1.42-.52-.51-.3-1.01-.65-1.63-.54-.26.04-.5.24-.77.21-.3-.03-.57-.24-.88-.28-.54-.06-1.08.08-1.51.4-.25.19-.33.32-.65.27-.28-.05-.54-.06-.82,0-.51.1-.9.41-1.17.86-.22.36-.31.9-.69,1.13-.55.34-.05,1.2.5.86h0Z"/>
          <path class="st18" d="M99.48,53.22s.05.02.07.02l-.12-.05c.06.03.12.07.18.11l-.1-.08c.16.12.3.27.44.41.16.15.31.3.47.45.09.09.22.15.35.15.12,0,.27-.05.35-.15s.15-.22.15-.35-.05-.26-.15-.35c-.2-.19-.41-.39-.61-.58-.23-.22-.46-.44-.77-.53-.12-.04-.27-.01-.39.05-.1.06-.2.18-.23.3-.06.27.08.54.35.62h0Z"/>
          <path class="st18" d="M100.9,50.7c.17.82.47,1.62.86,2.36.12.23.46.32.68.18.24-.15.31-.44.18-.68-.09-.17-.18-.34-.25-.52,0-.02-.08-.18-.03-.07-.02-.04-.03-.08-.05-.11-.04-.1-.07-.19-.11-.29-.13-.37-.24-.74-.32-1.13-.05-.26-.37-.43-.62-.35-.27.09-.41.34-.35.62h0Z"/>
          <path class="st18" d="M104,58.3l-.09,1.71c-.01.26.24.51.5.5.28-.01.49-.22.5-.5l.09-1.71c.01-.26-.24-.51-.5-.5-.28.01-.49.22-.5.5h0Z"/>
          <path class="st18" d="M103.7,51.51c-.19.35-.34.73-.45,1.12-.03.13-.02.27.05.39.06.1.18.2.3.23.13.03.27.02.39-.05s.2-.17.23-.3c.05-.2.12-.39.2-.59l-.05.12c.06-.14.13-.28.2-.41.06-.12.09-.26.05-.39-.03-.12-.12-.24-.23-.3-.12-.06-.26-.09-.39-.05-.12.04-.24.11-.3.23h0Z"/>
          <path class="st18" d="M89.47,62.07c.31.38.67.71,1.06,1,.1.07.27.08.39.05s.24-.12.3-.23c.06-.12.09-.26.05-.39l-.05-.12c-.04-.08-.1-.13-.18-.18-.02-.01-.04-.03-.05-.04l.1.08c-.33-.26-.63-.55-.9-.88-.08-.09-.24-.15-.35-.15-.12,0-.27.05-.35.15s-.15.22-.15.35l.02.13c.02.08.07.16.13.22h0Z"/>
          <path class="st18" d="M92.46,60.01v1.62c0,.26.23.51.5.5s.5-.22.5-.5v-1.62c0-.26-.23-.51-.5-.5s-.5.22-.5.5h0Z"/>
          <path class="st18" d="M90.3,60.76l.36.49c.03.06.07.11.13.14.05.04.1.07.17.09.07.02.13.02.2,0,.07,0,.13-.02.19-.06l.1-.08c.06-.06.1-.14.13-.22l.02-.13c0-.09-.02-.17-.07-.25l-.36-.49c-.03-.06-.07-.11-.13-.14-.05-.04-.1-.07-.17-.09-.07-.02-.13-.02-.2,0-.07,0-.13.02-.19.06l-.1.08c-.06.06-.1.14-.13.22l-.02.13c0,.09.02.17.07.25h0Z"/>
          <path class="st18" d="M100.56,58.79c.12.49.39.94.74,1.3.09.09.23.15.35.15s.27-.05.35-.15.15-.22.15-.35-.05-.26-.15-.35c-.07-.07-.13-.14-.19-.22l.08.1c-.12-.16-.23-.34-.31-.52l.05.12c-.05-.11-.08-.22-.11-.34s-.12-.24-.23-.3-.27-.09-.39-.05c-.26.08-.42.34-.35.62h0Z"/>
          <path class="st18" d="M101.95,57.52c.22.54.38,1.09.48,1.66.02.12.13.24.23.3.11.06.27.09.39.05.28-.09.4-.34.35-.62-.1-.57-.27-1.13-.48-1.66-.05-.13-.11-.23-.23-.3-.11-.06-.27-.09-.39-.05s-.24.11-.3.23-.1.26-.05.39h0Z"/>
          <path class="st18" d="M106.8,59.79c.05-.22.11-.44.18-.66.03-.11.07-.22.11-.32.02-.06.05-.12.07-.18,0-.02.02-.04.03-.07-.02.05-.03.08,0,.01.04-.09.09-.18.14-.27.01-.02.03-.04.04-.06.03-.05-.07.08,0,0,.03-.04.07-.07.1-.1.04-.04-.08.05-.03.02.02-.01.04-.03.07-.04.02,0,.04-.02.06-.03-.07.03-.08.03-.05.02,0,0,.02,0,.03-.01.02,0,.04-.01.06-.02.09-.02,0,.01-.02,0,.02,0,.05,0,.06,0,.11,0-.11-.02,0,0,.26.05.55-.07.62-.35.06-.25-.08-.56-.35-.62-.65-.13-1.22.25-1.52.82-.25.49-.42,1.04-.54,1.57-.06.25.08.55.35.62.25.06.56-.08.62-.35h0Z"/>
        </g>
      </g>
      <path class="st12" d="M88.43,36.28c.1-.49.25-.77.68-1.16.43-.39.91-.72,1.42-.98.9-.46,1.72-.7,2.45-.74.73-.04,1.3.17,1.69.62.68.76,1.31,1.47,1.9,2.12.59.66,1.16,1.29,1.7,1.88.54.6,1.08,1.19,1.61,1.79.53.59,1.07,1.22,1.62,1.88l.16-.08c-.47-1.4-.93-2.74-1.38-4-.45-1.26-.9-2.5-1.35-3.71-.45-1.21-.9-2.41-1.34-3.6-.44-1.19-.52-1.71-.35-2.43s.82-1.42,1.72-1.87c.79-.4,1.66-.48,2.41-.43s1.22.26,1.63,1.07c.24.47.59,1.55.93,2.47s.15.42.53,1.57c.38,1.15.76,2.37,1.14,3.66.38,1.29.73,2.52,1.03,3.71.31,1.19.56,2.28.75,3.27.19.99.25,1.54.18,2.26-.07.65-.1,1.16-.64,1.95-.59.86-1.24,1.25-2.02,1.64-1.01.51-2.38.55-3.38.4-.83-.12-1.52-.41-1.92-.83-.71-.72-1.32-1.28-2.24-2.29s-1.92-2.14-2.99-3.37c.4,1.54.78,3.06,1.13,4.55.35,1.49.53,2.12.56,3.29.02.8-.02,1.57-.63,2.29-.49.57-1.1,1.14-1.88,1.53-.96.49-1.61.51-2.55.53s-2.25-.25-2.74-.62c-.39-.29-.78-.57-1.39-1.21-.61-.65-1.28-1.4-2.01-2.25-.73-.85-1.5-1.79-2.32-2.8-.82-1.01-1.62-2.03-2.4-3.06-.78-1.03-1.53-2.05-2.24-3.04-.72-.99-2-2.79-2.04-3.31s.14-1.02.55-1.67.93-1.07,1.55-1.38c.81-.41,1.26-.56,1.97-.47.7.09,2.11,1.44,2.66,2.21,1.45,2.01,2.65,3.69,3.61,5.03.96,1.34,1.75,2.44,2.36,3.31.61.86,1.08,1.53,1.4,2.01.32.48.59.86.81,1.12l.16-.08c-.24-.95-.46-1.84-.66-2.65-.2-.81-.39-1.64-.58-2.47-.19-.83-.41-1.72-.64-2.66-.23-.94-.73-2.5-.62-2.98Z"/>
      <path class="st7" d="M115.04,44.6c-.65.19-1.01.1-1.39.1-.68,0-1.27-.06-1.78-.17-.42-.09-.77-.25-1.04-.47s-.49-.53-.63-.91c-.14-.38-.2-.87-.18-1.47,0,0,.52-13.32.59-13.8s.53-.82.99-.95.98-.13,1.37-.12c.67,0,1.26.06,1.77.17.42.09.77.24,1.05.47.28.23.49.53.63.91.14.38.2.87.18,1.47,0,0-.54,13.36-.6,13.66s-.29.92-.94,1.11Z"/>
      <g class="st11">
        <circle class="st1" cx="86.39" cy="60.5" r="19.03"/>
      </g>
      <g class="st5">
        <circle class="st2" cx="118.36" cy="46.88" r="10.25"/>
      </g>
      <path class="st7" d="M111.24,19.79c.67-.87,2.36-3.06,3.22-3.25.67-.16,2.2-.02,2.57.73.51,1.04-1.1,1.92-1.65,2.64-.42.55-.08.52.74.93.93.47,1.03,1.03.79,1.74-.28.83-2.51,2.48-3.15,2.35-.99-.2-.13-2.35-.57-2.66-.4-.29-1.29-.41-1.89-1.02-.23-.23-.52-.87-.06-1.46Z"/>
      <g class="st0">
        <path class="st10" d="M79.49,38.89c-.08-.1-.16-.2-.24-.31-.05-.06-.1-.13-.15-.19-.03-.03-.05-.06-.08-.09,0,0-.09-.12-.03-.04-.26-.34-.5-.69-.69-1.07-.02-.04-.04-.09-.06-.13.04.09-.01-.04-.02-.05-.04-.1-.07-.2-.09-.3.02.11,0-.01,0-.04,0-.1-.03.05,0-.04,0-.02.05-.16.03-.11s.05-.09.06-.11c.04-.08.1-.16.15-.23-.06.08.01-.02.03-.03.03-.04.07-.08.1-.12.07-.07.14-.15.22-.21.21-.17.18-.53,0-.71-.21-.21-.5-.17-.71,0-.27.22-.52.53-.68.84-.12.23-.22.5-.21.76,0,.24.08.47.17.69.19.45.45.87.74,1.26.13.18.27.36.41.53.05.06.09.11.14.17.03.04.17.21.03.04.16.22.43.33.68.18.21-.12.34-.47.18-.68h0Z"/>
      </g>
      <g class="st0">
        <path class="st10" d="M80.84,40.72s-.06-.08-.09-.12l.08.1c-.11-.14-.22-.29-.33-.44-.03-.06-.07-.11-.13-.14-.05-.04-.1-.07-.17-.09-.07-.02-.13-.02-.2,0-.07,0-.13.02-.19.06-.11.07-.2.17-.23.3l-.02.13c0,.09.02.17.07.25.16.22.33.44.5.65.05.05.1.08.16.1.06.03.12.05.19.04.07,0,.13-.01.19-.04.06-.02.12-.05.16-.1.09-.1.15-.22.15-.35l-.02-.13c-.02-.08-.07-.16-.13-.22h0Z"/>
      </g>
      <g class="st0">
        <path class="st10" d="M112.59,31.54c.03-.87.06-1.73.11-2.6.01-.26-.24-.51-.5-.5-.28.01-.48.22-.5.5-.05.87-.08,1.73-.11,2.6,0,.26.24.51.5.5.28-.01.49-.22.5-.5h0Z"/>
      </g>
      <g>
        <g>
          <path class="st7" d="M153.55,60.97c-.07.52-.56.68-1.05.84-.5.16-1.02.28-1.56.38-.52.09-.99.13-1.42.13-.43,0-.8-.08-1.12-.25-.32-.16-.59-.42-.8-.76-.22-.34-.37-.81-.47-1.4l-1.34-7.88c-.17-.97-.52-1.61-1.08-1.92-.55-.31-1.18-.4-1.89-.28-.47.08-.91.22-1.32.41-.41.19-.72.39-.96.6,0,0,2.11,11.19,2.09,11.76-.03.85-1.35,1.13-1.05,1.06.29-.07-1.02.28-1.56.38-.52.09-.99.13-1.42.13-.43,0-.8-.08-1.12-.25-.32-.16-.59-.42-.8-.76-.22-.34-.37-.81-.47-1.4,0,0-3.35-18.86-3.39-19.64-.04-.79.51-1.16,1-1.33.49-.17,1-.3,1.52-.39s.99-.13,1.42-.13c.43,0,.8.08,1.12.25.32.16.59.42.8.76.22.34.38.81.48,1.4l.59,3.48c.29-.17.73-.39,1.33-.65.6-.26,1.28-.46,2.04-.58,2.34-.4,4.27-.12,5.78.82,1.51.95,2.47,2.58,2.86,4.9,0,0,1.89,9.71,1.8,10.32Z"/>
          <g class="st14">
            <path class="st2" d="M130.78,59.81c.33-.95,1.15-3.33,2.9-3.75,1.69-.4,2.56,1.43,4.67,1.31,2.37-.14,2.54-2.52,5.25-3.37,2.88-.9,4.1,1.35,7.17.81,3.64-.64,4.07-4.19,6.5-4.68,4.66-.94,14.28,9.88,12.83,19.27-1.9,12.29-22.81,22.34-33.67,14.58-8.29-5.92-7.19-19.71-5.65-24.17Z"/>
          </g>
        </g>
        <g class="st0">
          <path class="st10" d="M138.35,45.25c-.16-.85-.32-1.71-.46-2.56-.04-.26-.38-.43-.62-.35-.28.09-.4.34-.35.62.14.86.3,1.71.46,2.56.05.26.37.43.62.35.28-.09.4-.34.35-.62h0Z"/>
        </g>
        <g class="st0">
          <path class="st10" d="M143.43,47.13c.61-.24,1.27-.23,1.92-.22.29,0,.59.01.87.08s.53.18.79.29c.9.36,1.72,1.06,1.98,2,.17.62,1.14.36.96-.27-.33-1.21-1.36-2.16-2.5-2.62-.29-.12-.58-.26-.88-.34-.35-.09-.71-.12-1.07-.13-.78-.02-1.61-.04-2.34.26-.25.1-.43.33-.35.62.07.24.36.45.62.35h0Z"/>
        </g>
        <g class="st0">
          <path class="st10" d="M150.67,51.36c-.04-.18-.09-.36-.13-.53-.03-.13-.05-.26-.08-.38-.03-.12-.13-.24-.23-.3s-.27-.09-.39-.05-.24.11-.3.23c-.06.12-.08.25-.05.39.04.2.08.39.13.59.03.11.05.22.08.33.03.12.12.24.23.3s.27.09.39.05.24-.11.3-.23.08-.25.05-.39h0Z"/>
        </g>
      </g>
      <g>
        <path class="st13" d="M123.57,57.46c-.14.61-.04,1.09.28,1.43.33.35.84.6,1.54.76.35.08.72.13,1.11.16.39.03,1.2.46,1.38.98.12.34.07.75-.03,1.19-.2.89-.7,1.54-1.49,1.95-.8.41-2.04.42-3.72.04-2.06-.47-3.54-1.3-4.44-2.49-.9-1.19-1.11-2.84-.63-4.94,0,0,3.02-14.23,3.41-14.64s.66-.39,1.16-.36c.5.03,1.02.1,1.55.22,1.03.23,1.79.6,2.28,1.09.49.49.6,1.32.34,2.49l-.51,2.25s3.96.79,4.34,1.07.4.62.44,1.03,0,.86-.1,1.33c-.19.82-.5,1.37-.95,1.65s-.97.35-1.58.21l-3.19-.73-1.21,5.3Z"/>
        <g class="st19">
          <path class="st1" d="M111.63,57.5c.68-1.85,5.28-3.3,7.92-1.87,1.36.74,1.23,1.72,2.67,2.54,2.71,1.54,5.32-.7,7.25,0,1.75.64,3.42,3.88,2.5,16.08-17.28-10.05-21.12-14.6-20.33-16.75Z"/>
        </g>
        <g class="st0">
          <path class="st10" d="M121.99,46.53c.2-.84.4-1.69.62-2.53.07-.25-.08-.55-.35-.62s-.55.08-.62.35c-.22.84-.42,1.68-.62,2.53-.06.25.08.55.35.62.26.06.55-.08.62-.35h0Z"/>
        </g>
        <g class="st0">
          <path class="st10" d="M126.86,49.88c.44.11.89.2,1.33.32.05.01.1.03.14.04.03,0,.05.02.08.02.02,0,.11.03.02,0-.09-.03,0,.01.01.02-.03,0-.08-.07-.03-.01.04.04.02.06-.01-.02,0,.02.02.03.03.05.04.07-.01-.07,0-.02,0,.11,0-.02,0-.02,0,0,0,.15,0,.17,0,.02,0,.05,0,.07,0-.12,0-.04,0-.01-.01.06-.02.13-.03.19-.02.13-.02.26.05.39.06.1.18.2.3.23.25.06.56-.07.62-.35.06-.31.14-.65.03-.96-.12-.35-.39-.59-.74-.69-.5-.15-1.02-.24-1.52-.37-.25-.06-.55.08-.62.35s.08.55.35.62h0Z"/>
        </g>
      </g>
      <g>
        <path class="st10" d="M134.37,37.65c.14.16.03.91.03.91,0,0,.51-.45.74-.48.24.32.1,1.62-.23,2.26s-1.07,1.6-1.98,1.03-.67-1.55-.34-2.18c.46-.87,1.61-1.53,1.79-1.53Z"/>
        <path class="st10" d="M136.38,42.09c-.16.14-.91.03-.91.03,0,0,.45.51.48.74-.32.24-1.62.1-2.26-.23s-1.6-1.07-1.03-1.98,1.55-.67,2.18-.34c.87.46,1.53,1.61,1.53,1.79Z"/>
        <path class="st10" d="M131.88,43.91c-.14-.16-.03-.91-.03-.91,0,0-.51.45-.74.48-.24-.32-.1-1.62.23-2.26s1.07-1.6,1.98-1.03.67,1.55.34,2.18c-.46.87-1.61,1.53-1.79,1.53Z"/>
        <path class="st10" d="M129.8,39.47c.16-.14.91-.03.91-.03,0,0-.45-.51-.48-.74.32-.24,1.62-.1,2.26.23s1.6,1.07,1.03,1.98-1.55.67-2.18.34c-.87-.46-1.53-1.61-1.53-1.79Z"/>
        <path class="st4" d="M134.12,38.39c.1.12.02.65.02.65,0,0,.36-.32.52-.34.17.23.07,1.15-.16,1.6s-.76,1.14-1.41.73-.47-1.1-.24-1.55c.32-.61,1.14-1.08,1.27-1.08Z"/>
        <path class="st4" d="M135.48,41.76c-.12.1-.65.02-.65.02,0,0,.32.36.34.52-.23.17-1.15.07-1.6-.16s-1.14-.76-.73-1.41,1.1-.47,1.55-.24c.61.32,1.08,1.14,1.08,1.27Z"/>
        <path class="st4" d="M132.09,43.25c-.1-.12-.02-.65-.02-.65,0,0-.36.32-.52.34-.17-.23-.07-1.15.16-1.6s.76-1.14,1.41-.73.47,1.1.24,1.55c-.32.61-1.14,1.08-1.27,1.08Z"/>
        <path class="st4" d="M130.55,39.73c.12-.1.65-.02.65-.02,0,0-.32-.36-.34-.52.23-.17,1.15-.07,1.6.16s1.14.76.73,1.41-1.1.47-1.55.24c-.61-.32-1.08-1.14-1.08-1.27Z"/>
        <circle class="st3" cx="133.18" cy="40.77" r=".72"/>
      </g>
      <g>
        <path class="st10" d="M134.18,43.68c.03.15-.29.56-.29.56,0,0,.47-.1.61-.04.04.28-.49,1.02-.91,1.29s-1.2.61-1.56-.05.12-1.17.54-1.44c.57-.37,1.5-.38,1.61-.32Z"/>
        <path class="st10" d="M133.9,47.07c-.15.03-.56-.29-.56-.29,0,0,.1.47.04.61-.28.04-1.02-.49-1.29-.91s-.61-1.2.05-1.56,1.17.12,1.44.54c.37.57.38,1.5.32,1.61Z"/>
        <path class="st10" d="M130.55,46.64c-.03-.15.29-.56.29-.56,0,0-.47.1-.61.04-.04-.28.49-1.02.91-1.29s1.2-.61,1.56.05-.12,1.17-.54,1.44c-.57.37-1.5.38-1.61.32Z"/>
        <path class="st10" d="M130.79,43.24c.15-.03.56.29.56.29,0,0-.1-.47-.04-.61.28-.04,1.02.49,1.29.91s.61,1.2-.05,1.56-1.17-.12-1.44-.54c-.37-.57-.38-1.5-.32-1.61Z"/>
        <path class="st4" d="M133.78,44.05c.02.1-.21.4-.21.4,0,0,.33-.07.43-.03.03.2-.35.72-.64.92s-.85.43-1.1-.03.09-.83.38-1.02c.4-.26,1.06-.27,1.14-.23Z"/>
        <path class="st4" d="M133.46,46.55c-.1.02-.4-.21-.4-.21,0,0,.07.33.03.43-.2.03-.72-.35-.92-.64s-.43-.85.03-1.1.83.09,1.02.38c.26.4.27,1.06.23,1.14Z"/>
        <path class="st4" d="M130.9,46.31c-.02-.1.21-.4.21-.4,0,0-.33.07-.43.03-.03-.2.35-.72.64-.92s.85-.43,1.1.03-.09.83-.38,1.02c-.4.26-1.06.27-1.14.23Z"/>
        <path class="st4" d="M131.16,43.65c.1-.02.4.21.4.21,0,0-.07-.33-.03-.43.2-.03.72.35.92.64s.43.85-.03,1.1-.83-.09-1.02-.38c-.26-.4-.27-1.06-.23-1.14Z"/>
        <circle class="st3" cx="132.4" cy="45.17" r=".5"/>
      </g>
      <path class="st10" d="M144.1,39.49c-1.92-.79-2.54-.71-4.2.53.79-1.92.71-2.54-.53-4.2,1.92.79,2.54.71,4.2-.53-.79,1.92-.71,2.54.53,4.2Z"/>
      <path class="st10" d="M149,42.84c-.63-1.04-.95-1.22-2.16-1.22,1.04-.63,1.22-.95,1.22-2.16.63,1.04.95,1.22,2.16,1.22-1.04.63-1.22.95-1.22,2.16Z"/>
      <path class="st10" d="M81.95,28.23c-2.34-.96-3.1-.87-5.13.64.96-2.34.87-3.1-.64-5.13,2.34.96,3.1.87,5.13-.64-.96,2.34-.87,3.1.64,5.13Z"/>
      <path class="st10" d="M72.73,34.27c-.63-1.04-.95-1.22-2.16-1.22,1.04-.63,1.22-.95,1.22-2.16.63,1.04.95,1.22,2.16,1.22-1.04.63-1.22.95-1.22,2.16Z"/>
    </g>
  </g>
</svg>